<svg version="1.1" xmlns="http://www.w3.org/2000/svg" viewBox="0 0 973.7166222722396 746.6531420484507" width="973.7166222722396" height="746.6531420484507">
  <!-- svg-source:excalidraw -->
  
  <defs>
    <style class="style-fonts">
      @font-face {
        font-family: "Virgil";
        src: url("https://excalidraw.com/Virgil.woff2");
      }
      @font-face {
        font-family: "Cascadia";
        src: url("https://excalidraw.com/Cascadia.woff2");
      }
    </style>
    
  </defs>
  <g stroke-linecap="round" transform="translate(10 70.55325983138704) rotate(0 210.40167293764816 331.80204480319804)"><path d="M32 0 M32 0 C129.21 -1.46, 224.18 -2.09, 388.8 0 M388.8 0 C411.88 -1.54, 420.24 9.48, 420.8 32 M420.8 32 C423.16 175.93, 423.47 319.14, 420.8 631.6 M420.8 631.6 C422.1 651.84, 409.89 664.33, 388.8 663.6 M388.8 663.6 C273.23 665.53, 157.12 664.47, 32 663.6 M32 663.6 C11.42 663.45, 0.23 651.46, 0 631.6 M0 631.6 C2.73 419.6, 1.95 206.96, 0 32 M0 32 C-0.62 9.16, 11.6 -0.41, 32 0" stroke="#000000" stroke-width="1.5" fill="none" stroke-dasharray="8 9"></path></g><g stroke-linecap="round" transform="translate(548.9132763969434 67.90074081882472) rotate(0 207.40167293764813 334.376200614813)"><path d="M32 0 M32 0 C109.3 -0.53, 185.69 0.05, 382.8 0 M382.8 0 C403.35 -1.32, 416.27 12.37, 414.8 32 M414.8 32 C415.8 223.37, 415.94 413.04, 414.8 636.75 M414.8 636.75 C412.97 656.43, 402.92 668.62, 382.8 668.75 M382.8 668.75 C243.9 669.9, 104.81 670.71, 32 668.75 M32 668.75 C9.44 670.37, -1.3 658.38, 0 636.75 M0 636.75 C1.6 495.03, 1.89 354.17, 0 32 M0 32 C-0.57 10.89, 8.68 -1.96, 32 0" stroke="#000000" stroke-width="1.5" fill="none" stroke-dasharray="8 9"></path></g><g transform="translate(137.7463232925594 80.38717769797148) rotate(0 85.17594909667969 35)"><text x="85.17594909667969" y="0" font-family="Virgil, Segoe UI Emoji" font-size="28px" fill="#1e1e1e" text-anchor="middle" style="white-space: pre;" direction="ltr" dominant-baseline="text-before-edge">Instructor </text><text x="85.17594909667969" y="35" font-family="Virgil, Segoe UI Emoji" font-size="28px" fill="#1e1e1e" text-anchor="middle" style="white-space: pre;" direction="ltr" dominant-baseline="text-before-edge">Certification</text></g><g transform="translate(676.6595996895028 77.73465868540916) rotate(0 85.17594909667969 35)"><text x="85.17594909667969" y="0" font-family="Virgil, Segoe UI Emoji" font-size="28px" fill="#1e1e1e" text-anchor="middle" style="white-space: pre;" direction="ltr" dominant-baseline="text-before-edge">Instructor </text><text x="85.17594909667969" y="35" font-family="Virgil, Segoe UI Emoji" font-size="28px" fill="#1e1e1e" text-anchor="middle" style="white-space: pre;" direction="ltr" dominant-baseline="text-before-edge">Certification</text></g><g stroke-linecap="round" transform="translate(52.80572850513471 184.6665604140537) rotate(0 171 46)"><path d="M0 0 C97.89 0, 195.79 0, 342 0 M0 0 C101.17 0, 202.33 0, 342 0 M342 0 C342 34.58, 342 69.16, 342 92 M342 0 C342 20.33, 342 40.67, 342 92 M342 92 C272.39 92, 202.78 92, 0 92 M342 92 C232.63 92, 123.26 92, 0 92 M0 92 C0 66.14, 0 40.28, 0 0 M0 92 C0 68.28, 0 44.55, 0 0" stroke="#1e1e1e" stroke-width="1" fill="none"></path></g><g transform="translate(91.60379369068158 213.1665604140537) rotate(0 132.20193481445312 17.5)"><text x="132.20193481445312" y="0" font-family="Virgil, Segoe UI Emoji" font-size="28px" fill="#1e1e1e" text-anchor="middle" style="white-space: pre;" direction="ltr" dominant-baseline="text-before-edge">Instructor Training</text></g><g stroke-linecap="round" transform="translate(591.719004902078 182.01404140149137) rotate(0 171 46)"><path d="M0 0 C83.49 0, 166.99 0, 342 0 M0 0 C94.83 0, 189.65 0, 342 0 M342 0 C342 28.38, 342 56.76, 342 92 M342 0 C342 22.4, 342 44.8, 342 92 M342 92 C217.14 92, 92.28 92, 0 92 M342 92 C254.38 92, 166.76 92, 0 92 M0 92 C0 58.89, 0 25.78, 0 0 M0 92 C0 65.56, 0 39.13, 0 0" stroke="#1e1e1e" stroke-width="1" fill="none"></path></g><g transform="translate(630.5170700876249 210.51404140149137) rotate(0 132.20193481445312 17.5)"><text x="132.20193481445312" y="0" font-family="Virgil, Segoe UI Emoji" font-size="28px" fill="#1e1e1e" text-anchor="middle" style="white-space: pre;" direction="ltr" dominant-baseline="text-before-edge">Instructor Training</text></g><g stroke-linecap="round" transform="translate(40.735193132542065 338.0320627195001) rotate(0 176.5 190.5)"><path d="M32 0 M32 0 C147.13 0, 262.25 0, 321 0 M32 0 C115.64 0, 199.29 0, 321 0 M321 0 C342.33 0, 353 10.67, 353 32 M321 0 C342.33 0, 353 10.67, 353 32 M353 32 C353 121.2, 353 210.4, 353 349 M353 32 C353 124.05, 353 216.09, 353 349 M353 349 C353 370.33, 342.33 381, 321 381 M353 349 C353 370.33, 342.33 381, 321 381 M321 381 C225.41 381, 129.83 381, 32 381 M321 381 C243.94 381, 166.87 381, 32 381 M32 381 C10.67 381, 0 370.33, 0 349 M32 381 C10.67 381, 0 370.33, 0 349 M0 349 C0 275.68, 0 202.37, 0 32 M0 349 C0 250.14, 0 151.28, 0 32 M0 32 C0 10.67, 10.67 0, 32 0 M0 32 C0 10.67, 10.67 0, 32 0" stroke="#1e1e1e" stroke-width="1" fill="none"></path></g><g transform="translate(146.8268755666241 343.0320627195001) rotate(0 70.40831756591797 20.182463462829816)"><text x="70.40831756591797" y="0" font-family="Virgil, Segoe UI Emoji" font-size="32.2919415405277px" fill="#1e1e1e" text-anchor="middle" style="white-space: pre;" direction="ltr" dominant-baseline="text-before-edge">Checkout</text></g><g stroke-linecap="round" transform="translate(579.6484695294855 335.3795437069378) rotate(0 176.5 193.5)"><path d="M32 0 M32 0 C139.61 0, 247.22 0, 321 0 M32 0 C99.85 0, 167.69 0, 321 0 M321 0 C342.33 0, 353 10.67, 353 32 M321 0 C342.33 0, 353 10.67, 353 32 M353 32 C353 125.3, 353 218.6, 353 355 M353 32 C353 137.38, 353 242.75, 353 355 M353 355 C353 376.33, 342.33 387, 321 387 M353 355 C353 376.33, 342.33 387, 321 387 M321 387 C228.9 387, 136.8 387, 32 387 M321 387 C242.86 387, 164.71 387, 32 387 M32 387 C10.67 387, 0 376.33, 0 355 M32 387 C10.67 387, 0 376.33, 0 355 M0 355 C0 233.77, 0 112.55, 0 32 M0 355 C0 249.42, 0 143.85, 0 32 M0 32 C0 10.67, 10.67 0, 32 0 M0 32 C0 10.67, 10.67 0, 32 0" stroke="#1e1e1e" stroke-width="1" fill="none"></path></g><g transform="translate(685.7401519635675 340.3795437069378) rotate(0 70.40831756591797 20.182463462829816)"><text x="70.40831756591797" y="0" font-family="Virgil, Segoe UI Emoji" font-size="32.2919415405277px" fill="#1e1e1e" text-anchor="middle" style="white-space: pre;" direction="ltr" dominant-baseline="text-before-edge">Checkout</text></g><g stroke-linecap="round"><g transform="translate(210.15759342935596 311.7286691117465) rotate(0 8.68876314801183 -0.04869020827053738)"><path d="M0 0 C3.55 -0.02, 7.1 -0.04, 17.38 -0.1 M0 0 C6.36 -0.04, 12.72 -0.07, 17.38 -0.1" stroke="#1971c2" stroke-width="4" fill="none"></path></g></g><mask></mask><g stroke-linecap="round"><g transform="translate(218.7655233296462 303.7476072097272) rotate(0 0 7.803231510097429)"><path d="M0 0 C0 3.18, 0 6.35, 0 15.61 M0 0 C0 4.03, 0 8.07, 0 15.61" stroke="#1971c2" stroke-width="4" fill="none"></path></g></g><mask></mask><g stroke-linecap="round"><g transform="translate(749.0708698262994 309.0761500991842) rotate(0 8.688763148011844 -0.04869020827053738)"><path d="M0 0 C5.6 -0.03, 11.2 -0.06, 17.38 -0.1 M0 0 C3.96 -0.02, 7.92 -0.04, 17.38 -0.1" stroke="#1971c2" stroke-width="4" fill="none"></path></g></g><mask></mask><g stroke-linecap="round"><g transform="translate(757.6787997265895 301.09508819716496) rotate(0 0 7.803231510097429)"><path d="M0 0 C0 4.06, 0 8.13, 0 15.61 M0 0 C0 3.25, 0 6.5, 0 15.61" stroke="#1971c2" stroke-width="4" fill="none"></path></g></g><mask></mask><g stroke-linecap="round" transform="translate(60.47640684795476 396.6798298883138) rotate(0 153.27436197144635 40.758350936227316)"><path d="M20.38 0 M20.38 0 C100.4 -1.08, 181.89 -0.6, 286.17 0 M20.38 0 C80.79 0.18, 141.28 1.36, 286.17 0 M286.17 0 C300.35 1.27, 305.5 5.95, 306.55 20.38 M286.17 0 C300.47 -0.91, 306.38 8.09, 306.55 20.38 M306.55 20.38 C307.93 30.4, 305.45 38.05, 306.55 61.14 M306.55 20.38 C305.49 33.46, 305.45 46.26, 306.55 61.14 M306.55 61.14 C305.05 76.49, 298.69 83.48, 286.17 81.52 M306.55 61.14 C307.72 73.83, 298.47 79.4, 286.17 81.52 M286.17 81.52 C190.97 82.61, 93.4 83.66, 20.38 81.52 M286.17 81.52 C180.56 81.93, 76.46 81.02, 20.38 81.52 M20.38 81.52 C6.32 82.42, -1.31 73.65, 0 61.14 M20.38 81.52 C4.82 80.82, 1.68 75.53, 0 61.14 M0 61.14 C1.48 48.01, 0.12 32.67, 0 20.38 M0 61.14 C-0.13 46.33, -0.8 31.84, 0 20.38 M0 20.38 C1.85 8.61, 6.15 0.52, 20.38 0 M0 20.38 C1.06 5.8, 6.62 -1.45, 20.38 0" stroke="#1e1e1e" stroke-width="1" fill="none"></path></g><g transform="translate(78.8836270957683 408.59102869001845) rotate(0 134.8671417236328 28.847152134522652)"><text x="134.8671417236328" y="0" font-family="Virgil, Segoe UI Emoji" font-size="23.07772170761812px" fill="#1e1e1e" text-anchor="middle" style="white-space: pre;" direction="ltr" dominant-baseline="text-before-edge">Teaching Demonstration</text><text x="134.8671417236328" y="28.847152134522652" font-family="Virgil, Segoe UI Emoji" font-size="23.07772170761812px" fill="#1e1e1e" text-anchor="middle" style="white-space: pre;" direction="ltr" dominant-baseline="text-before-edge">(Prepare Full Lesson)</text></g><g stroke-linecap="round" transform="translate(599.3896832448982 394.0273108757515) rotate(0 153.27436197144635 40.758350936227316)"><path d="M20.38 0 M20.38 0 C82.87 -1.45, 145.94 -0.85, 286.17 0 M20.38 0 C118.09 0.86, 216.77 1.46, 286.17 0 M286.17 0 C301.71 1.9, 307.58 7.83, 306.55 20.38 M286.17 0 C299.71 2.07, 307.94 5.38, 306.55 20.38 M306.55 20.38 C304.96 34.36, 306.48 50.76, 306.55 61.14 M306.55 20.38 C306.27 31.35, 305.56 41.12, 306.55 61.14 M306.55 61.14 C308.32 76.53, 297.83 81.77, 286.17 81.52 M306.55 61.14 C306.06 76.38, 299.76 80.16, 286.17 81.52 M286.17 81.52 C231.19 82.28, 177.02 82.26, 20.38 81.52 M286.17 81.52 C192.84 81.32, 98.45 82.41, 20.38 81.52 M20.38 81.52 C8.55 79.79, 0.14 75, 0 61.14 M20.38 81.52 C8.67 81.02, 0.17 76.63, 0 61.14 M0 61.14 C1.19 45.19, 0.58 31.01, 0 20.38 M0 61.14 C-0.59 51.66, -0.22 40.06, 0 20.38 M0 20.38 C0.34 6.82, 7.12 -0.22, 20.38 0 M0 20.38 C-0.5 8.23, 7.97 -1.09, 20.38 0" stroke="#1e1e1e" stroke-width="1" fill="none"></path></g><g transform="translate(617.7969034927116 405.9385096774561) rotate(0 134.8671417236328 28.847152134522652)"><text x="134.8671417236328" y="0" font-family="Virgil, Segoe UI Emoji" font-size="23.07772170761812px" fill="#1e1e1e" text-anchor="middle" style="white-space: pre;" direction="ltr" dominant-baseline="text-before-edge">Teaching Demonstration</text><text x="134.8671417236328" y="28.847152134522652" font-family="Virgil, Segoe UI Emoji" font-size="23.07772170761812px" fill="#1e1e1e" text-anchor="middle" style="white-space: pre;" direction="ltr" dominant-baseline="text-before-edge">(Prepare 1 episode)</text></g><g stroke-linecap="round" transform="translate(60.52922938279528 490.48545906139435) rotate(0 153.5 40.5)"><path d="M20.25 0 M20.25 0 C81.45 -0.74, 143.82 -1.5, 286.75 0 M20.25 0 C95.11 0.39, 169.85 -0.39, 286.75 0 M286.75 0 C300.7 -1.96, 307.18 4.8, 307 20.25 M286.75 0 C301.4 0.97, 306.43 6.17, 307 20.25 M307 20.25 C305.71 31.49, 309.33 44.37, 307 60.75 M307 20.25 C306.44 32.49, 306.53 44.41, 307 60.75 M307 60.75 C308.17 74.31, 298.97 80.11, 286.75 81 M307 60.75 C308.32 73.82, 298.44 78.85, 286.75 81 M286.75 81 C213.33 81.44, 135.77 79.6, 20.25 81 M286.75 81 C213.91 80.23, 142.24 79.55, 20.25 81 M20.25 81 C8.28 79.03, 0.03 73.14, 0 60.75 M20.25 81 C6.91 83.19, -1.88 74.09, 0 60.75 M0 60.75 C-0.68 45.37, -1.76 30.22, 0 20.25 M0 60.75 C-0.51 51.04, -0.75 42.83, 0 20.25 M0 20.25 C-1.47 6.25, 8.33 -1.2, 20.25 0 M0 20.25 C0.37 7.34, 5.49 -1.6, 20.25 0" stroke="#1e1e1e" stroke-width="1" fill="none"></path></g><g transform="translate(91.71217463426012 502.1383069268717) rotate(0 122.31705474853516 28.84715213452266)"><text x="122.31705474853516" y="0" font-family="Virgil, Segoe UI Emoji" font-size="23.07772170761812px" fill="#1e1e1e" text-anchor="middle" style="white-space: pre;" direction="ltr" dominant-baseline="text-before-edge">Community Discussion</text><text x="122.31705474853516" y="28.847152134522652" font-family="Virgil, Segoe UI Emoji" font-size="23.07772170761812px" fill="#1e1e1e" text-anchor="middle" style="white-space: pre;" direction="ltr" dominant-baseline="text-before-edge">(Any community event)</text></g><g stroke-linecap="round" transform="translate(599.4425057797387 486.82683614662847) rotate(0 153.5 40.5)"><path d="M20.25 0 M20.25 0 C123.96 0.48, 226.64 0.75, 286.75 0 M20.25 0 C80.48 1.69, 142.44 2.49, 286.75 0 M286.75 0 C301.28 1.04, 306.96 8.55, 307 20.25 M286.75 0 C301.64 -1.41, 308.86 5.26, 307 20.25 M307 20.25 C306.93 32.32, 306.06 45.76, 307 60.75 M307 20.25 C305.89 33.08, 307.77 48.77, 307 60.75 M307 60.75 C305.08 74.5, 299.82 82.44, 286.75 81 M307 60.75 C307.01 72.9, 298.11 82.66, 286.75 81 M286.75 81 C186.14 78.82, 84.67 79.02, 20.25 81 M286.75 81 C200.05 79.38, 113.79 78.35, 20.25 81 M20.25 81 C6.89 81.27, 1.63 73.82, 0 60.75 M20.25 81 C6.92 82.9, 1.45 73.06, 0 60.75 M0 60.75 C0.17 52.08, -1.08 43.17, 0 20.25 M0 60.75 C-0.14 51.14, 0.52 42.02, 0 20.25 M0 20.25 C0.33 6.53, 6.32 1.25, 20.25 0 M0 20.25 C1.18 5.66, 8.97 -2.12, 20.25 0" stroke="#1e1e1e" stroke-width="1" fill="none"></path></g><g transform="translate(663.2810067563012 512.9032600793671) rotate(0 89.6614990234375 14.423576067261322)"><text x="89.6614990234375" y="0" font-family="Virgil, Segoe UI Emoji" font-size="23.07772170761812px" fill="#1e1e1e" text-anchor="middle" style="white-space: pre;" direction="ltr" dominant-baseline="text-before-edge">Welcome Session</text></g><g stroke-linecap="round" transform="translate(58.55284477685291 582.753381845604) rotate(0 153.5 37)"><path d="M18.5 0 M18.5 0 C102.72 0.61, 190.43 0.69, 288.5 0 M18.5 0 C109.32 -1.76, 201.35 -1.38, 288.5 0 M288.5 0 C300.3 0.12, 307.97 6.87, 307 18.5 M288.5 0 C299.87 1.69, 305.82 5.61, 307 18.5 M307 18.5 C306.61 26.65, 305.64 32.74, 307 55.5 M307 18.5 C307.64 30.91, 307.36 44.21, 307 55.5 M307 55.5 C308.57 66.69, 302.05 75.66, 288.5 74 M307 55.5 C309.04 66.69, 300.04 75.95, 288.5 74 M288.5 74 C230.35 75.44, 173.25 75.69, 18.5 74 M288.5 74 C216.36 71.85, 144.23 72.27, 18.5 74 M18.5 74 C6.19 72.17, -1.93 66.03, 0 55.5 M18.5 74 C7.86 76.16, -1.65 66.15, 0 55.5 M0 55.5 C1.69 41.32, 0.16 28.54, 0 18.5 M0 55.5 C0.28 46.08, 0.19 36.49, 0 18.5 M0 18.5 C-0.81 7.52, 6.32 -0.29, 18.5 0 M0 18.5 C-0.59 5.19, 4.95 0.51, 18.5 0" stroke="#1e1e1e" stroke-width="1" fill="none"></path></g><g transform="translate(102.3204457900365 605.3298057783428) rotate(0 109.7323989868164 14.423576067261337)"><text x="109.7323989868164" y="0" font-family="Virgil, Segoe UI Emoji" font-size="23.07772170761812px" fill="#1e1e1e" text-anchor="middle" style="white-space: pre;" direction="ltr" dominant-baseline="text-before-edge">Lesson Contribution</text></g><g stroke-linecap="round" transform="translate(597.4661211737963 581.1674094818825) rotate(0 154.5 63)"><path d="M31.5 0 M31.5 0 C111.79 0.06, 188.58 -2.71, 277.5 0 M31.5 0 C85.73 0.92, 138.78 0.56, 277.5 0 M277.5 0 C298.46 1.8, 310.21 9.27, 309 31.5 M277.5 0 C300.36 -1.49, 309.33 8.98, 309 31.5 M309 31.5 C308.39 45.56, 309.88 58.98, 309 94.5 M309 31.5 C309.26 52.01, 307.41 70.84, 309 94.5 M309 94.5 C308.57 116.94, 298.5 124.82, 277.5 126 M309 94.5 C306.86 117.16, 300.36 126.02, 277.5 126 M277.5 126 C219.01 124.01, 159.19 126.03, 31.5 126 M277.5 126 C227.53 126.2, 176.16 127.02, 31.5 126 M31.5 126 C12.13 125.57, 0.15 117.16, 0 94.5 M31.5 126 C11.95 124.81, -2.29 116.62, 0 94.5 M0 94.5 C-1 77.89, -1.49 62.25, 0 31.5 M0 94.5 C0.48 69.69, 0.47 44.74, 0 31.5 M0 31.5 C-0.43 11.75, 11.53 -0.95, 31.5 0 M0 31.5 C2.22 8.38, 12.38 -0.07, 31.5 0" stroke="#1e1e1e" stroke-width="1" fill="none"></path></g><g transform="translate(667.8666262397143 615.3202573473598) rotate(0 84.09949493408203 28.847152134522645)"><text x="84.09949493408203" y="0" font-family="Virgil, Segoe UI Emoji" font-size="23.07772170761812px" fill="#1e1e1e" text-anchor="middle" style="white-space: pre;" direction="ltr" dominant-baseline="text-before-edge">"Get Involved"</text><text x="84.09949493408203" y="28.847152134522652" font-family="Virgil, Segoe UI Emoji" font-size="23.07772170761812px" fill="#1e1e1e" text-anchor="middle" style="white-space: pre;" direction="ltr" dominant-baseline="text-before-edge">(Many options!)</text></g><g stroke-linecap="round"><g transform="translate(370.77068741305527 439.6594012539921) rotate(0 112.975191094843 -1.2808782175457765)"><path d="M-0.59 -0.32 C37.2 -0.82, 188.97 -2.08, 226.54 -2.24 M1.3 -1.54 C39.06 -1.91, 189.13 -0.5, 226.22 -0.76" stroke="#1e1e1e" stroke-width="1" fill="none"></path></g><g transform="translate(370.77068741305527 439.6594012539921) rotate(0 112.975191094843 -1.2808782175457765)"><path d="M197.47 11.41 C205.68 5.84, 215.25 1.85, 227.44 -1.88 M197.35 9.28 C206.65 6.76, 213.93 3.19, 225.99 -0.99" stroke="#1e1e1e" stroke-width="1" fill="none"></path></g><g transform="translate(370.77068741305527 439.6594012539921) rotate(0 112.975191094843 -1.2808782175457765)"><path d="M197.51 -9.11 C205.84 -8.91, 215.4 -7.13, 227.44 -1.88 M197.39 -11.24 C206.54 -7.82, 213.81 -5.45, 225.99 -0.99" stroke="#1e1e1e" stroke-width="1" fill="none"></path></g></g><mask></mask><g stroke-linecap="round"><g transform="translate(373.1449830094116 530.2322697331907) rotate(0 112.70817355662236 -1.2563030163858997)"><path d="M0.31 -0.04 C37.51 -0.61, 186.8 -1.94, 224.24 -2.47 M-0.98 -1.11 C36.49 -1.54, 188.89 -0.7, 226.4 -0.89" stroke="#1e1e1e" stroke-width="1" fill="none"></path></g><g transform="translate(373.1449830094116 530.2322697331907) rotate(0 112.70817355662236 -1.2563030163858997)"><path d="M198.12 7.58 C209.16 4.76, 218.85 0.85, 225.26 -0.56 M198.5 9.02 C204.63 7.45, 210.89 5.47, 227.05 -1.22" stroke="#1e1e1e" stroke-width="1" fill="none"></path></g><g transform="translate(373.1449830094116 530.2322697331907) rotate(0 112.70817355662236 -1.2563030163858997)"><path d="M198.14 -12.94 C209.33 -7.82, 219.01 -3.8, 225.26 -0.56 M198.52 -11.5 C204.48 -8.45, 210.74 -5.81, 227.05 -1.22" stroke="#1e1e1e" stroke-width="1" fill="none"></path></g></g><mask></mask><g stroke-linecap="round"><g transform="translate(367.6169840123744 626.6636378281883) rotate(0 112.85036013224841 4.65789455420267)"><path d="M0.68 1.06 C38.25 2.37, 188.8 6.52, 226.12 7.47 M-0.42 0.57 C36.98 2.07, 187.58 7.59, 225.5 8.74" stroke="#1e1e1e" stroke-width="1" fill="none"></path></g><g transform="translate(367.6169840123744 626.6636378281883) rotate(0 112.85036013224841 4.65789455420267)"><path d="M198.74 19.07 C206.45 13.06, 215.65 11.69, 225.72 7.76 M196.17 17.41 C206.82 15.26, 216.09 11.08, 224.7 8.4" stroke="#1e1e1e" stroke-width="1" fill="none"></path></g><g transform="translate(367.6169840123744 626.6636378281883) rotate(0 112.85036013224841 4.65789455420267)"><path d="M199.44 -1.44 C206.84 -0.04, 215.78 6, 225.72 7.76 M196.87 -3.1 C207.18 1.86, 216.2 4.8, 224.7 8.4" stroke="#1e1e1e" stroke-width="1" fill="none"></path></g></g><mask></mask><g stroke-linecap="round"><g transform="translate(373.57640682744886 540.601465061078) rotate(0 111.71307359220276 37.52199096747988)"><path d="M-0.86 1.04 C36.25 13.1, 184.54 61.3, 222.02 73.36 M0.9 0.54 C38.44 13.26, 187.12 62.21, 224.28 74.51" stroke="#1e1e1e" stroke-width="1" fill="none"></path></g><g transform="translate(373.57640682744886 540.601465061078) rotate(0 111.71307359220276 37.52199096747988)"><path d="M196.02 73.97 C200.48 77.3, 207.93 76.27, 223.14 72.51 M193.62 75.53 C205.02 74.42, 216.68 73.98, 223.71 74.28" stroke="#1e1e1e" stroke-width="1" fill="none"></path></g><g transform="translate(373.57640682744886 540.601465061078) rotate(0 111.71307359220276 37.52199096747988)"><path d="M202.46 54.49 C205.49 62.59, 211.34 66.38, 223.14 72.51 M200.05 56.04 C209.12 61.91, 218.47 68.47, 223.71 74.28" stroke="#1e1e1e" stroke-width="1" fill="none"></path></g></g><mask></mask><g transform="translate(146.84218990325837 10) rotate(0 66.87796783447266 17.5)"><text x="66.87796783447266" y="0" font-family="Virgil, Segoe UI Emoji" font-size="28px" fill="#1e1e1e" text-anchor="middle" style="white-space: pre;" direction="ltr" dominant-baseline="text-before-edge">Previously</text></g><g stroke-linecap="round"><g transform="translate(144.20229094358427 40.73421479320166) rotate(0 70.61551732247534 -0.7317670188857619)"><path d="M0 0 C23.54 -0.24, 117.69 -1.22, 141.23 -1.46 M0 0 C23.54 -0.24, 117.69 -1.22, 141.23 -1.46" stroke="#f08c00" stroke-width="1" fill="none"></path></g></g><mask></mask><g transform="translate(722.7964365240771 13.615361433076544) rotate(0 25.297988891601562 17.5)"><text x="25.297988891601562" y="0" font-family="Virgil, Segoe UI Emoji" font-size="28px" fill="#1e1e1e" text-anchor="middle" style="white-space: pre;" direction="ltr" dominant-baseline="text-before-edge">Now</text></g><g stroke-linecap="round"><g transform="translate(708.7044663464449 42.60151416427806) rotate(0 39.223987161615725 -0.09610808724929143)"><path d="M0 0 C13.07 -0.03, 65.37 -0.16, 78.45 -0.19 M0 0 C13.07 -0.03, 65.37 -0.16, 78.45 -0.19" stroke="#f08c00" stroke-width="1" fill="none"></path></g></g><mask></mask></svg>