<?xml version="1.0" encoding="UTF-8"?>
<svg width="240" height="120" id="Layer_1" xmlns="http://www.w3.org/2000/svg" version="1.1" viewBox="0 0 476.64 151.2">
  <!-- Generator: Adobe Illustrator 29.5.1, SVG Export Plug-In . SVG Version: 2.1.0 Build 141)  -->
  <defs>
    <style>
      .st0 {
        fill: #ad976e;
      }

      .st1 {
        fill: #003a5d;
      }
    </style>
  </defs>
  <path class="st0" d="M56.17,47.17c4.46-2.23,9.34-3.37,14.22-3.37,5.84,0,11.68,1.62,16.8,4.81h0c-.73,2.78-.04,5.86,2.14,8.04,1.63,1.63,3.78,2.45,5.92,2.45s4.29-.82,5.92-2.45c3.27-3.27,3.27-8.57,0-11.84-1.63-1.63-3.78-2.45-5.92-2.45-1.32,0-2.63.35-3.83.97-14.93-9.74-35.17-8.06-48.26,5.03-2.46,2.46-4.5,5.17-6.16,8.05l47.62,47.62c-9.8,4.89-21.62,4.41-31.03-1.45.73-2.78.04-5.86-2.14-8.04-1.63-1.63-3.78-2.45-5.92-2.45s-4.29.82-5.92,2.45c-3.27,3.27-3.27,8.57,0,11.84,1.63,1.63,3.78,2.45,5.92,2.45,1.32,0,2.63-.35,3.84-.97,6.37,4.15,13.7,6.23,21.03,6.23,9.86,0,19.72-3.75,27.23-11.26,2.43-2.43,4.49-5.14,6.17-8.04l-47.62-47.62ZM93.02,48.5c.6-.6,1.39-.93,2.24-.93s1.64.33,2.24.93c.6.6.93,1.39.93,2.24s-.33,1.64-.93,2.24c-.6.6-1.39.93-2.24.93s-1.64-.33-2.24-.93c-1.23-1.23-1.23-3.24,0-4.47ZM47.76,102.7c-.6.6-1.39.93-2.24.93s-1.64-.33-2.24-.93c0,0,0,0,0,0-1.23-1.23-1.23-3.24,0-4.47.6-.6,1.39-.93,2.24-.93s1.64.33,2.24.93c1.23,1.23,1.23,3.24,0,4.47ZM92.89,98.1c-.8.8-1.64,1.53-2.51,2.23l-44.71-44.71c.69-.86,1.42-1.71,2.22-2.51.8-.8,1.64-1.54,2.5-2.24l44.72,44.72c-.7.87-1.43,1.71-2.23,2.51Z"/>
  <g>
    <path class="st1" d="M138.21,107.68c-1.55-.06-2.85-.09-4.5-.09s-2.91.03-4.34.09v-.16c1.78-.6,2.06-1.05,2.06-6.88v-8.27c0-5.83-.29-6.27-2.06-6.84v-.16c1.43.06,3.23.09,4.88.09,4.47,0,7.16-.06,9.95-.22-.09,1.36,0,4.5.13,5.67l-.16.03c-.92-2.35-2.03-2.88-5.96-2.88-1.33,0-1.74.03-2.22.1v7.13l2.98-.1c2.95-.13,3.55-.44,4.02-1.74h.19c-.1.73-.13,2.03-.13,3.01,0,1.17.03,2.28.13,2.98h-.19c-.48-1.33-1.11-1.62-4.02-1.71l-2.98-.1v3.77c0,5.23.25,5.51,2.22,6.12v.16Z"/>
    <g>
      <path class="st1" d="M152.88,69.66c-1.14-.06-2.6-.09-4.15-.09s-2.88,0-3.83.09v-.16c.92-.32,1.17-.73,1.17-1.36,0-.44-.13-1.08-.48-1.96-.32-.76-.63-1.58-1.01-2.47h-8.94c-.25.66-.54,1.3-.79,1.93-.41,1.08-.67,1.81-.67,2.41,0,.79.35,1.24,1.2,1.46v.16c-1.2-.09-2.63-.09-3.68-.09s-2.41.03-3.36.09v-.16c1.08-.44,1.55-.92,2.82-3.77,5.58-12.33,6.84-15.18,8.3-18.7h2.76c.92,2.54,3.23,7.99,8.14,19.3.95,2.19,1.33,2.76,2.5,3.17v.16ZM143.57,61.16c-.98-2.38-2.09-5.13-3.42-8.33-1.2,2.92-2.34,5.7-3.45,8.33h6.88Z"/>
      <path class="st1" d="M163.59,65.09c0,1.3.51,1.84,2.47,1.84,3.64,0,4.79-.76,6.34-3.36l.16.09c-.54,2-.98,4.47-1.17,6.02-2.85-.09-6.31-.13-8.78-.13-1.65,0-4.21.03-5.64.09v-.16c1.78-.6,2.06-1.05,2.06-6.88v-8.27c0-5.83-.29-6.27-2.06-6.84v-.16c1.43.06,2.69.09,4.34.09s2.95-.03,4.5-.09v.16c-1.96.57-2.22.86-2.22,6.08v11.5Z"/>
      <path class="st1" d="M186.25,69.66c-1.55-.06-2.85-.09-4.5-.09s-2.91.03-4.34.09v-.16c1.78-.6,2.06-1.05,2.06-6.88v-8.27c0-5.83-.29-6.27-2.06-6.84v-.16c1.43.06,3.23.09,4.88.09,4.47,0,7.16-.06,9.95-.22-.09,1.36,0,4.5.13,5.67l-.16.03c-.92-2.35-2.03-2.88-5.96-2.88-1.33,0-1.74.03-2.22.1v7.13l2.98-.1c2.95-.13,3.55-.44,4.02-1.74h.19c-.1.73-.13,2.03-.13,3.01,0,1.17.03,2.28.13,2.98h-.19c-.48-1.33-1.11-1.62-4.02-1.71l-2.98-.1v3.77c0,5.23.25,5.51,2.22,6.12v.16Z"/>
      <path class="st1" d="M206.59,69.66c-1.55-.06-2.85-.09-4.53-.09s-2.88.03-4.31.09v-.16c1.78-.6,2.06-1.05,2.06-6.88v-8.27c0-5.83-.29-6.27-2.06-6.84v-.16c1.43.06,2.5.09,4.15.09,1.14,0,2.85-.13,4.78-.13,6.02,0,9.09,2.41,9.09,6.31,0,3.1-2.12,4.75-4.53,5.67,2.09,4.94,5.23,8.81,8.18,10.14l-.06.19c-5.17-.66-9.92-2.53-12.71-9.13-.6.06-1.14.09-1.65.09h-.67v2.79c0,5.07.29,5.51,2.25,6.12v.16ZM204.34,58.34h1.33c3.07,0,5.32-1.2,5.32-4.21,0-2.79-1.84-4.18-5.17-4.18-.63,0-1.24.06-1.49.09v8.3Z"/>
      <path class="st1" d="M237.23,69.69c-2.92-.09-6.97-.13-9.51-.13-1.68,0-3.74.03-5.17.09v-.16c1.78-.6,2.06-1.05,2.06-6.88v-8.27c0-5.83-.29-6.27-2.06-6.84v-.16c1.43.06,3.23.09,4.88.09,4.69,0,7.38-.06,10.27-.22-.1,1.36.03,4.5.16,5.67l-.16.03c-.92-2.35-2.06-2.88-6.43-2.88-.95,0-1.58.03-2.09.1v6.65l3.42-.09c2.95-.1,3.52-.41,4.02-1.71h.19c-.09.7-.13,2-.13,2.98,0,1.17.03,2.28.13,3.01h-.19c-.51-1.36-1.14-1.65-4.02-1.74l-3.42-.06v5.93c0,1.3.48,1.84,2.57,1.84,3.58,0,4.91-.76,6.46-3.2l.16.1c-.51,1.96-.95,4.37-1.14,5.86Z"/>
      <path class="st1" d="M243.72,69.5c1.78-.6,2.06-1.05,2.06-6.88v-8.27c0-5.83-.29-6.27-2.06-6.84v-.16c1.43.06,2.66.09,3.8.09,1.52,0,2.98-.13,4.4-.13,4.75,0,8.56,1.21,11.22,3.87,1.9,1.9,2.92,4.5,2.92,7.54,0,6.43-4.56,11.06-13.25,11.06-1.81,0-3.64-.22-5.29-.22-1.21,0-2.38.03-3.8.09v-.16ZM258.96,52.67c-1.87-1.84-4.37-2.63-7-2.63-.86,0-1.33.03-1.62.1v14.99c0,1.43.54,1.93,3.07,1.93,4.53,0,7.73-2.76,7.73-8.05,0-2.82-.79-4.91-2.19-6.34Z"/>
      <g>
        <path class="st1" d="M290.01,69.66c-1.55-.06-2.85-.09-4.5-.09s-2.91.03-4.34.09v-.16c1.78-.6,2.06-1.05,2.06-6.88v-8.27c0-5.83-.29-6.27-2.06-6.84v-.16c1.43.06,2.69.09,4.34.09,1.08,0,2.73-.13,4.4-.13,5.64,0,9.44,2.28,9.44,6.59,0,1.84-.6,3.2-1.68,4.28-1.77,1.81-4.82,2.66-8.36,2.66h-1.52v2.85c0,4.75.25,5.2,2.22,5.8v.16ZM287.79,58.38h1.11c2.12,0,3.74-.41,4.63-1.33.66-.7,1.01-1.65,1.01-2.88,0-2.98-2.03-4.21-5.04-4.21-.66,0-1.3.06-1.71.09v8.34Z"/>
        <path class="st1" d="M302.61,69.97c-1.43,0-2.63-1.11-2.63-2.6s1.2-2.6,2.63-2.6,2.66,1.11,2.66,2.6-1.2,2.6-2.66,2.6Z"/>
      </g>
      <path class="st1" d="M328.07,70.1c-2.79,0-5.39-.76-6.94-1.62.13-2,.13-4.88-.03-6.12l.16-.03c1.43,3.07,4.18,5.04,6.94,5.04,2,0,3.55-1.24,3.55-3.17,0-1.65-.98-2.66-4.34-4.15-4.22-1.93-5.96-3.74-5.96-6.75,0-3.58,2.98-6.4,7.61-6.4,2.35,0,4.53.66,6.08,1.46-.16,1.78-.13,4.09,0,5.7l-.16.03c-1.52-2.85-3.77-4.47-6.12-4.47-1.62,0-2.91,1.11-2.91,2.76,0,1.55.82,2.34,4.09,3.8,4.31,2,6.21,3.83,6.21,7,0,4.09-3.3,6.91-8.18,6.91Z"/>
      <path class="st1" d="M348.29,65.09c0,1.3.51,1.84,2.47,1.84,3.64,0,4.79-.76,6.34-3.36l.16.09c-.54,2-.98,4.47-1.17,6.02-2.85-.09-6.31-.13-8.78-.13-1.65,0-4.21.03-5.64.09v-.16c1.78-.6,2.06-1.05,2.06-6.88v-8.27c0-5.83-.29-6.27-2.06-6.84v-.16c1.43.06,2.69.09,4.34.09s2.95-.03,4.5-.09v.16c-1.96.57-2.22.86-2.22,6.08v11.5Z"/>
      <path class="st1" d="M361.75,58.5c0-6.78,5.35-11.63,12.07-11.63,7.19,0,11.95,5.23,11.95,11.63,0,6.78-5.32,11.63-12.07,11.63-7.16,0-11.95-5.23-11.95-11.63ZM366.7,58.22c0,5.17,2.79,9.03,7.19,9.03s6.97-3.64,6.97-8.46c0-5.16-2.79-9.03-7.19-9.03s-6.97,3.61-6.97,8.46Z"/>
      <path class="st1" d="M412.74,69.66c-1.14-.06-2.6-.09-4.15-.09s-2.88,0-3.83.09v-.16c.92-.32,1.17-.73,1.17-1.36,0-.44-.13-1.08-.48-1.96-.32-.76-.63-1.58-1.01-2.47h-8.94c-.25.66-.54,1.3-.79,1.93-.41,1.08-.67,1.81-.67,2.41,0,.79.35,1.24,1.2,1.46v.16c-1.2-.09-2.63-.09-3.68-.09s-2.41.03-3.36.09v-.16c1.08-.44,1.55-.92,2.82-3.77,5.58-12.33,6.84-15.18,8.3-18.7h2.76c.92,2.54,3.23,7.99,8.14,19.3.95,2.19,1.33,2.76,2.5,3.17v.16ZM403.42,61.16c-.98-2.38-2.09-5.13-3.42-8.33-1.2,2.92-2.34,5.7-3.45,8.33h6.88Z"/>
      <path class="st1" d="M437.42,69.81h-2.5c-.6-1.05-1.74-2.69-2.85-4.06l-9.79-12.2.03,9.41c0,5.51.32,5.96,2.19,6.53v.16c-1.58-.06-2.66-.09-3.93-.09-1.33,0-2.28.03-3.77.09v-.16c1.74-.57,2.03-1.14,2.03-7.29l.03-7.57c0-6.02-.25-6.53-2.06-7.13v-.16c1.39.06,2.28.13,3.68.13,1.17,0,2.16-.06,2.73-.16.32.51.95,1.36,1.62,2.22,1.3,1.68,6.66,8.37,9.35,11.73l-.03-7.29c0-5.51-.32-5.89-2.19-6.47v-.16c1.62.06,2.76.09,4.06.09s2.22-.03,3.64-.09v.16c-1.74.57-1.96,1.08-2.06,7.45l-.16,14.86Z"/>
      <path class="st1" d="M149.65,96.52c0-6.78,5.35-11.63,12.07-11.63,7.19,0,11.95,5.23,11.95,11.63,0,6.78-5.32,11.63-12.07,11.63-7.16,0-11.95-5.23-11.95-11.63ZM154.6,96.24c0,5.17,2.79,9.03,7.19,9.03s6.97-3.64,6.97-8.46c0-5.16-2.79-9.03-7.19-9.03s-6.97,3.61-6.97,8.46Z"/>
      <path class="st1" d="M198.64,98.96c0,5.55-2.88,9.19-9.38,9.19-6.12,0-9.16-3.42-9.16-8.91v-6.88c0-5.83-.29-6.27-2.03-6.84v-.16c1.43.06,2.66.09,4.31.09s2.98-.03,4.5-.09v.16c-1.96.57-2.22.82-2.22,5.8v7.57c0,4.06,1.77,5.8,5.1,5.8s5.35-1.87,5.35-6.02l-.03-6.84c0-5.35-.32-5.74-2.19-6.31v-.16c1.62.06,2.85.09,4.18.09s2.12-.03,3.61-.09v.16c-1.71.57-2.03,1.11-2.03,7.45l-.03,5.99Z"/>
      <path class="st1" d="M226.18,107.84h-2.5c-.6-1.05-1.74-2.69-2.85-4.06l-9.79-12.2.03,9.41c0,5.51.32,5.96,2.19,6.53v.16c-1.58-.06-2.66-.09-3.93-.09-1.33,0-2.28.03-3.77.09v-.16c1.74-.57,2.03-1.14,2.03-7.29l.03-7.57c0-6.02-.25-6.53-2.06-7.13v-.16c1.39.06,2.28.13,3.68.13,1.17,0,2.16-.06,2.73-.16.32.51.95,1.36,1.62,2.22,1.3,1.68,6.66,8.37,9.35,11.73l-.03-7.29c0-5.51-.32-5.89-2.19-6.47v-.16c1.62.06,2.76.09,4.06.09s2.22-.03,3.64-.09v.16c-1.74.57-1.96,1.08-2.06,7.45l-.16,14.86Z"/>
      <path class="st1" d="M234.3,107.52c1.78-.6,2.06-1.05,2.06-6.88v-8.27c0-5.83-.29-6.27-2.06-6.84v-.16c1.43.06,2.66.09,3.8.09,1.52,0,2.98-.13,4.4-.13,4.75,0,8.56,1.21,11.22,3.87,1.9,1.9,2.92,4.5,2.92,7.54,0,6.43-4.56,11.06-13.25,11.06-1.81,0-3.64-.22-5.29-.22-1.21,0-2.38.03-3.8.09v-.16ZM249.54,90.69c-1.87-1.84-4.37-2.63-7-2.63-.86,0-1.33.03-1.62.1v14.99c0,1.43.54,1.93,3.07,1.93,4.53,0,7.73-2.76,7.73-8.05,0-2.82-.79-4.91-2.19-6.34Z"/>
      <path class="st1" d="M283.21,107.68c-1.14-.06-2.6-.09-4.15-.09s-2.88,0-3.83.09v-.16c.92-.32,1.17-.73,1.17-1.36,0-.44-.13-1.08-.48-1.96-.32-.76-.63-1.58-1.01-2.47h-8.94c-.25.66-.54,1.3-.79,1.93-.41,1.08-.67,1.81-.67,2.41,0,.79.35,1.24,1.2,1.46v.16c-1.2-.09-2.63-.09-3.68-.09s-2.41.03-3.36.09v-.16c1.08-.44,1.55-.92,2.82-3.77,5.58-12.33,6.84-15.18,8.3-18.7h2.76c.92,2.54,3.23,7.99,8.14,19.3.95,2.19,1.33,2.76,2.5,3.17v.16ZM273.9,99.19c-.98-2.38-2.09-5.13-3.42-8.33-1.2,2.92-2.34,5.7-3.45,8.33h6.88Z"/>
      <path class="st1" d="M299.95,107.68c-1.81-.06-3.04-.09-4.69-.09s-2.88.03-4.69.09v-.16c2.22-.63,2.41-.82,2.41-6.43v-13.12h-.95c-4.06.06-5.45,1.49-6.53,4.5l-.16-.03c.13-1.39.22-5.96.06-7.13,2.88.09,6.05.16,9.85.16s7-.06,9.89-.16c-.16,1.17-.06,5.74.06,7.13l-.16.03c-1.08-3.01-2.47-4.44-6.53-4.5h-.98v13.12c0,5.61.22,5.8,2.41,6.43v.16Z"/>
      <path class="st1" d="M314.96,107.58c-1.65,0-2.98.03-4.37.09v-.16c1.84-.6,2.12-1.05,2.12-6.88v-8.27c0-5.83-.29-6.27-2.12-6.84v-.16c1.39.06,2.73.09,4.37.09s2.92-.03,4.44-.09v.16c-1.84.57-2.12,1.01-2.12,6.84v8.27c0,5.83.29,6.27,2.12,6.88v.16c-1.52-.06-2.82-.09-4.44-.09Z"/>
      <path class="st1" d="M324.49,96.52c0-6.78,5.35-11.63,12.07-11.63,7.19,0,11.95,5.23,11.95,11.63,0,6.78-5.32,11.63-12.07,11.63-7.16,0-11.95-5.23-11.95-11.63ZM329.43,96.24c0,5.17,2.79,9.03,7.19,9.03s6.97-3.64,6.97-8.46c0-5.16-2.79-9.03-7.19-9.03s-6.97,3.61-6.97,8.46Z"/>
      <path class="st1" d="M374.3,107.84h-2.5c-.6-1.05-1.74-2.69-2.85-4.06l-9.79-12.2.03,9.41c0,5.51.32,5.96,2.19,6.53v.16c-1.58-.06-2.66-.09-3.93-.09-1.33,0-2.28.03-3.77.09v-.16c1.74-.57,2.03-1.14,2.03-7.29l.03-7.57c0-6.02-.25-6.53-2.06-7.13v-.16c1.39.06,2.28.13,3.68.13,1.17,0,2.16-.06,2.73-.16.32.51.95,1.36,1.62,2.22,1.3,1.68,6.66,8.37,9.35,11.73l-.03-7.29c0-5.51-.32-5.89-2.19-6.47v-.16c1.62.06,2.76.09,4.06.09s2.22-.03,3.64-.09v.16c-1.74.57-1.96,1.08-2.06,7.45l-.16,14.86Z"/>
    </g>
  </g>
</svg>