<svg width="240" height="51" viewBox="0 0 240 51" fill="black" xmlns="http://www.w3.org/2000/svg" aria-labelledby="logoV2HeaderTitle" role="img" class="logo-mobile"><title id="logoV2HeaderTitle">Mellon Foundation</title><path d="M127.736 23.6431V23.7621H122.272V23.6431C123.222 23.3755 123.787 22.6319 123.787 19.5123V4.69265L115.321 23.7621H114.637L105.936 5.25609V18.2946C105.936 22.4254 106.796 23.3441 108.579 23.6415V23.7605H102.94V23.6415C104.544 23.3441 105.465 22.4237 105.465 18.2946V5.7617C105.465 3.68308 104.455 2.76273 103.029 2.40583V2.28687H107.236L115.993 21.0589L124.349 2.28687H127.654V2.40583C126.733 2.64377 126.31 3.50463 126.31 6.77458V19.514C126.31 22.6369 126.814 23.3755 127.736 23.6431Z"></path><path d="M141.34 20.3235C140.477 22.4715 138.429 23.9471 135.636 23.9471C131.33 23.9471 128.33 20.5317 128.33 15.9283C128.33 11.206 131.36 7.90796 135.435 7.90796C139.266 7.90796 141.228 10.6112 141.228 13.582C141.234 13.9491 141.194 14.3156 141.109 14.6726H130.699C130.699 19.3652 133.462 22.0684 137.026 22.0684C138.749 22.0684 140.084 21.5628 141.244 20.2508L141.34 20.3235ZM130.699 14.3157H138.994C139.086 13.8663 139.125 13.4077 139.111 12.9492C139.111 10.2179 138.012 8.28634 135.428 8.28634C132.844 8.28634 130.825 10.7219 130.699 14.3157Z"></path><path d="M147.161 23.6728V23.7621H141.844V23.6728C142.972 23.3159 143.331 22.8103 143.331 20.4045V4.84131C143.331 2.25707 142.914 1.51518 141.875 1.15828L141.905 1.06905C143.422 0.979828 144.909 0.535353 145.854 0L145.913 0.0297418C145.824 0.624578 145.646 1.90017 145.646 4.84131V20.4045C145.646 22.8401 146.065 23.3754 147.161 23.6728Z"></path><path d="M154.2 23.6728V23.7621H148.883V23.6728C150.011 23.3159 150.37 22.8103 150.37 20.4045V4.84131C150.37 2.25707 149.955 1.51518 148.916 1.15828L148.944 1.06905C150.459 0.979828 151.945 0.535353 152.895 0L152.954 0.0297418C152.865 0.624578 152.686 1.90017 152.686 4.84131V20.4045C152.685 22.8401 153.101 23.3754 154.2 23.6728Z"></path><path d="M175.171 23.6727V23.762H169.796V23.6727C170.953 23.3158 171.31 22.8102 171.31 20.4044V12.7426C171.31 10.1584 170.893 9.43797 169.854 9.05959L169.884 9.00011C171.31 8.88114 172.858 8.43501 173.834 7.89966L173.894 7.95914C173.775 8.52424 173.626 9.80148 173.626 12.7509V20.4127C173.626 22.7507 174.043 23.3753 175.171 23.6727ZM185.538 23.6727V23.762H180.161V23.6727C181.29 23.3753 181.736 22.7507 181.736 20.4044V13.8117C181.736 10.7813 180.34 9.26613 178.023 9.26613C176.478 9.26613 175.022 10.2476 174.251 11.7017L174.221 11.6719C174.755 9.95019 176.567 7.89966 179.271 7.89966C182.27 7.89966 184.023 9.95019 184.023 12.9789V20.4044C184.023 22.8102 184.378 23.3158 185.538 23.6727Z"></path><path d="M169.529 15.92C169.529 20.5829 166.647 23.9388 162.073 23.9388C157.47 23.9388 154.588 20.5829 154.588 15.92C154.588 11.5843 157.47 7.89966 162.073 7.89966C166.649 7.89966 169.529 11.5843 169.529 15.92ZM166.974 15.92C166.974 11.4951 165.013 8.2863 162.073 8.2863C159.099 8.2863 157.143 11.4951 157.143 15.92C157.143 20.7019 159.103 23.5835 162.073 23.5835C165.015 23.5835 166.976 20.7019 166.976 15.92H166.974Z"></path><path d="M117.132 34.203L117.014 34.2625C116.063 30.1928 114.49 28.7371 111.102 28.7371H107.153V38.5387H110.623C113.771 38.5387 114.485 37.6481 114.899 35.895H115.018V42.1342H114.899C114.485 40.1134 113.771 38.9253 110.623 38.9253H107.153V45.1034C107.153 48.6674 107.747 49.411 108.875 49.7068V49.8257H103.203V49.7068C104.093 49.4391 104.629 48.6972 104.629 45.5198V32.6531C104.629 29.4757 104.093 28.7322 103.203 28.4661V28.3472H116.866L117.132 34.203Z"></path><path d="M179.33 49.0195V49.074C178.142 49.1037 176.805 49.4887 175.617 49.9943L175.587 49.9646V39.7202C175.587 35.8901 173.985 34.3452 171.49 34.3452C168.757 34.3452 166.738 36.751 166.738 41.86C166.738 46.4336 168.578 48.6345 171.311 48.6345C172.798 48.6345 174.163 47.6844 174.935 46.199L174.965 46.2287C174.429 48.0116 172.678 50.0009 170.094 50.0009C166.559 50.0009 164.213 46.9128 164.213 42.6646C164.213 36.5758 167.598 33.9618 171.483 33.9618C173.205 33.9618 174.601 34.5864 175.581 35.596V30.8984C175.581 28.3142 175.136 27.5707 174.094 27.2154L174.153 27.1262C175.529 27.0455 176.874 26.6816 178.102 26.0571L178.132 26.0869C178.043 26.6801 177.864 27.9573 177.864 30.8984V45.4224C177.874 48.0991 178.32 48.6923 179.33 49.0195Z"></path><path d="M193.124 49.0194V49.0739C191.967 49.1037 190.629 49.4886 189.441 49.9943L189.381 49.9645V41.6236L183.114 43.4411C182.812 43.9862 182.658 44.6009 182.668 45.224C182.668 47.5703 184.155 48.5799 185.787 48.5799C187.035 48.5799 188.193 48.0759 188.846 46.7987L188.905 46.8284C188.431 48.6691 186.827 50.0058 184.659 50.0058C182.283 50.0058 180.411 48.4014 180.411 45.9659C180.411 45.0455 180.741 44.0657 181.124 43.6526L189.386 41.1874V40.1679C189.386 36.0371 188.287 34.3467 185.971 34.3467C184.128 34.3467 182.258 35.743 182.139 39.7812L182.079 39.811L181.159 35.7727C182.484 34.5946 184.198 33.9474 185.971 33.9551C189.505 33.9551 191.703 36.0635 191.703 40.3116V45.4206C191.698 48.099 192.114 48.6922 193.124 49.0194Z"></path><path d="M229.635 49.7349V49.8242H224.258V49.7349C225.415 49.378 225.773 48.8741 225.773 46.4683V38.8015C225.773 36.2173 225.357 35.4969 224.318 35.1185L224.348 35.059C225.773 34.94 227.322 34.4956 228.298 33.9602L228.358 34.0197C228.239 34.5848 228.09 35.862 228.09 38.8015V46.465C228.09 48.8113 228.506 49.4342 229.635 49.7349ZM240 49.7349V49.8242H234.63V49.7349C235.758 49.4375 236.205 48.8146 236.205 46.4683V39.8706C236.205 36.8419 234.808 35.3267 232.49 35.3267C230.947 35.3267 229.491 36.3065 228.72 37.7622L228.69 37.7325C229.224 36.0091 231.036 33.9602 233.739 33.9602C236.738 33.9602 238.49 36.0091 238.49 39.0394V46.465C238.485 48.8708 238.842 49.3747 240 49.7349Z"></path><path d="M131.651 41.9689C131.651 46.6318 128.769 49.9893 124.195 49.9893C119.592 49.9893 116.71 46.6318 116.71 41.9689C116.71 37.6332 119.592 33.9502 124.195 33.9502C128.769 33.9552 131.651 37.6382 131.651 41.9689ZM129.096 41.9689C129.096 37.544 127.137 34.3352 124.195 34.3352C121.221 34.3352 119.265 37.544 119.265 41.9689C119.265 46.7507 121.226 49.6324 124.195 49.6324C127.137 49.6374 129.096 46.7607 129.096 41.9689Z"></path><path d="M206.075 46.465V38.8015C206.075 36.0521 206.203 34.7566 206.317 34.1387H196.866V31.6139L196.747 31.5544C196.182 32.4748 194.669 33.8677 193.598 34.3171V34.4956H194.639V45.0985C194.639 48.3949 196.182 49.9993 198.796 49.9993C200.994 49.9993 202.266 48.3652 202.449 47.1772L202.36 47.1474C201.945 48.2462 200.966 48.8113 199.659 48.8113C197.995 48.8113 196.866 47.8017 196.866 44.8309V34.4956H200.61C202.534 34.4956 203.75 34.7203 203.75 39.7549V46.465C203.75 48.8708 203.395 49.3748 202.236 49.7317V49.8209H207.552V49.735C206.46 49.4342 206.075 48.9088 206.075 46.465Z"></path><path d="M204.847 31.5545C205.692 31.5545 206.377 30.8695 206.377 30.0244C206.377 29.1794 205.692 28.4944 204.847 28.4944C204.002 28.4944 203.317 29.1794 203.317 30.0244C203.317 30.8695 204.002 31.5545 204.847 31.5545Z"></path><path d="M143.587 46.1561C142.843 47.6118 141.389 48.5916 139.844 48.5916C137.531 48.5916 136.132 47.0764 136.132 44.0477V38.79C136.132 35.7894 136.31 34.5717 136.399 34.0082L136.37 33.9487C135.39 34.4824 133.904 34.9286 132.419 35.0475L132.359 35.107C133.399 35.4937 133.846 36.2058 133.846 38.79V44.8788C133.846 47.8778 135.6 49.9581 138.569 49.9581C141.302 49.9581 143.113 47.8778 143.648 46.1858L143.587 46.1561Z"></path><path d="M151.849 46.4535V38.79C151.849 35.8489 151.997 34.5717 152.116 34.0082L152.057 33.9487C151.075 34.4824 149.532 34.9286 148.106 35.0475L148.076 35.107C149.116 35.4937 149.532 36.2058 149.532 38.79V46.4535C149.532 47.6283 149.446 48.3504 149.225 48.8229C149.121 49.049 148.955 49.2405 148.745 49.3748C148.536 49.5091 148.293 49.5805 148.044 49.5805C147.795 49.5805 147.552 49.5091 147.343 49.3748C147.133 49.2405 146.967 49.049 146.863 48.8229C146.642 48.3504 146.556 47.6283 146.556 46.4535V38.79C146.556 35.7894 146.705 34.5717 146.824 34.0082L146.764 33.9487C145.534 34.5741 144.192 34.9477 142.815 35.0475L142.786 35.107C143.825 35.4937 144.24 36.2058 144.24 38.79V46.4535C144.24 48.7998 143.825 49.4277 142.696 49.7202V49.8094H153.393V49.7202C152.263 49.4227 151.849 48.7998 151.849 46.4535Z"></path><path d="M162.242 46.4535V39.028C162.242 35.9976 160.49 33.9487 157.49 33.9487C154.788 33.9487 152.976 35.9976 152.44 37.721L152.47 37.7507C153.243 36.295 154.699 35.3152 156.242 35.3152C158.555 35.3152 159.955 36.8287 159.955 39.8591V46.4535C159.955 48.7998 159.509 49.4277 158.38 49.7202V49.8094H163.757V49.7202C162.599 49.3633 162.242 48.8593 162.242 46.4535Z"></path><path d="M223.36 41.9592C223.36 46.622 220.478 49.9779 215.904 49.9779C211.301 49.9779 208.419 46.622 208.419 41.9592C208.419 37.6235 211.301 33.9404 215.904 33.9404C220.478 33.9404 223.36 37.6235 223.36 41.9592ZM220.805 41.9592C220.805 37.5342 218.845 34.3254 215.904 34.3254C212.93 34.3254 210.974 37.5342 210.974 41.9592C210.974 46.741 212.935 49.6226 215.904 49.6226C218.845 49.6226 220.805 46.741 220.805 41.9592Z"></path><path d="M4.30275 50.3922C6.47977 50.3922 8.41599 48.6695 8.5787 46.4536C9.55494 32.915 18.5038 16.1692 28.9871 12.6493C32.3762 11.5008 34.7957 12.732 34.5549 16.2603C34.3922 18.3934 31.8116 23.3167 31.0046 26.1052C28.5852 34.4756 33.9887 41.2854 41.1689 41.2854C50.4432 41.2854 54.7224 32.8339 55.4481 24.3824C56.0127 17.4898 56.8197 8.62959 62.9505 8.62959C67.1451 8.62298 68.8389 13.1358 71.587 20.6043C73.6046 26.1846 79.2505 40.3785 85.8662 48.83C86.5974 49.7147 87.642 50.2706 88.7736 50.3772C89.9051 50.4838 91.0323 50.1324 91.9108 49.3993C93.6859 47.9231 93.7673 45.2968 92.477 43.3275C84.3286 30.9391 81.4243 22.6514 78.1165 13.4619C73.7608 1.31998 66.9027 -0.485498 61.2568 0.335323C51.8995 1.73866 48.4289 10.675 47.3811 23.0635C46.5676 32.3308 42.5406 34.3034 40.2008 32.9928C36.2487 30.7769 39.8754 23.967 40.7654 21.5873C45.4449 9.03339 38.346 4.11177 31.8165 4.11177C18.3444 4.11177 2.85466 22.2443 0.0316913 45.5467C-0.29535 48.1714 1.96302 50.3922 4.30275 50.3922Z"></path></svg>