<svg width="546" height="262" viewBox="0 0 546 262" fill="none" xmlns="http://www.w3.org/2000/svg">
<g clip-path="url(#clip0_202_131)">
<path d="M130.687 230.574L65.3125 65.5628L230.323 130.938L158.652 158.902L130.687 230.574Z" fill="#3171D1" fill-opacity="0.2"/>
<path d="M130.688 31.3019L196.063 196.313L31.0518 130.938L102.723 102.973L130.688 31.3019Z" fill="#0066FF" fill-opacity="0.35"/>
<path d="M230.324 130.938L65.3135 196.312L130.688 31.3014L158.653 102.973L230.324 130.938Z" fill="#3171D1" fill-opacity="0.2"/>
<path d="M31.0513 130.937L196.062 65.5626L130.688 230.573L102.723 158.902L31.0513 130.937Z" fill="#3171D1"/>
<path d="M381.834 167.248V197.728C381.834 199.296 381.898 200.72 382.026 202H375.93C375.77 201.2 375.69 200.288 375.69 199.264C375.146 200.256 374.282 201.056 373.098 201.664C371.946 202.272 370.602 202.576 369.066 202.576C365.706 202.576 362.938 201.408 360.762 199.072C358.618 196.704 357.546 193.728 357.546 190.144C357.546 186.656 358.602 183.728 360.714 181.36C362.858 178.992 365.578 177.808 368.874 177.808C372.266 177.808 374.49 178.784 375.546 180.736V167.248H381.834ZM363.978 190.144C363.978 192.224 364.522 193.872 365.61 195.088C366.698 196.272 368.106 196.864 369.834 196.864C371.53 196.864 372.922 196.256 374.01 195.04C375.098 193.824 375.642 192.176 375.642 190.096C375.642 188.048 375.098 186.448 374.01 185.296C372.922 184.112 371.53 183.52 369.834 183.52C368.138 183.52 366.73 184.112 365.61 185.296C364.522 186.48 363.978 188.096 363.978 190.144Z" fill="#001F4D"/>
<path d="M339.115 188.416V202H332.731V178.384H338.923V181.312C339.595 180.16 340.555 179.28 341.803 178.672C343.051 178.064 344.363 177.76 345.739 177.76C348.523 177.76 350.635 178.64 352.075 180.4C353.547 182.128 354.283 184.368 354.283 187.12V202H347.899V188.224C347.899 186.816 347.531 185.68 346.795 184.816C346.091 183.952 345.003 183.52 343.531 183.52C342.187 183.52 341.115 183.984 340.315 184.912C339.515 185.84 339.115 187.008 339.115 188.416Z" fill="#001F4D"/>
<path d="M321.502 202C321.374 201.36 321.31 200.512 321.31 199.456C320.702 200.512 319.79 201.312 318.574 201.856C317.39 202.368 316.126 202.624 314.782 202.624C311.998 202.624 309.806 201.744 308.206 199.984C306.606 198.192 305.806 195.968 305.806 193.312V178.384H312.19V192.016C312.19 193.424 312.558 194.576 313.294 195.472C314.03 196.336 315.102 196.768 316.51 196.768C317.886 196.768 318.974 196.352 319.774 195.52C320.574 194.656 320.974 193.52 320.974 192.112V178.384H327.358V197.728C327.358 199.232 327.438 200.656 327.598 202H321.502Z" fill="#001F4D"/>
<path d="M289.56 202H282.888V167.968H304.392V174.256H289.512V182.656H302.76V188.752H289.56V202Z" fill="#001F4D"/>
<path d="M490.801 134.416V148H484.417V124.384H490.609V127.312C491.281 126.16 492.241 125.28 493.489 124.672C494.737 124.064 496.049 123.76 497.425 123.76C500.209 123.76 502.321 124.64 503.761 126.4C505.233 128.128 505.969 130.368 505.969 133.12V148H499.585V134.224C499.585 132.816 499.217 131.68 498.481 130.816C497.777 129.952 496.689 129.52 495.217 129.52C493.873 129.52 492.801 129.984 492.001 130.912C491.201 131.84 490.801 133.008 490.801 134.416Z" fill="#001F4D"/>
<path d="M464.161 141.136C465.345 142.32 466.769 142.912 468.433 142.912C470.097 142.912 471.505 142.32 472.657 141.136C473.841 139.952 474.433 138.304 474.433 136.192C474.433 134.08 473.841 132.432 472.657 131.248C471.505 130.064 470.097 129.472 468.433 129.472C466.769 129.472 465.345 130.064 464.161 131.248C463.009 132.432 462.433 134.08 462.433 136.192C462.433 138.304 463.009 139.952 464.161 141.136ZM459.553 127.216C461.921 124.848 464.881 123.664 468.433 123.664C471.985 123.664 474.929 124.848 477.265 127.216C479.633 129.584 480.817 132.576 480.817 136.192C480.817 139.808 479.633 142.8 477.265 145.168C474.929 147.536 471.985 148.72 468.433 148.72C464.881 148.72 461.921 147.536 459.553 145.168C457.217 142.8 456.049 139.808 456.049 136.192C456.049 132.576 457.217 129.584 459.553 127.216Z" fill="#001F4D"/>
<path d="M452.431 148H446.047V124.384H452.431V148ZM445.279 116.656C445.279 115.568 445.663 114.64 446.431 113.872C447.199 113.072 448.127 112.672 449.215 112.672C450.303 112.672 451.231 113.056 451.999 113.824C452.767 114.592 453.151 115.536 453.151 116.656C453.151 117.712 452.767 118.624 451.999 119.392C451.231 120.16 450.303 120.544 449.215 120.544C448.127 120.544 447.199 120.16 446.431 119.392C445.663 118.624 445.279 117.712 445.279 116.656Z" fill="#001F4D"/>
<path d="M437.312 117.328V124.384H442.064V130.048H437.312V139.936C437.312 140.928 437.536 141.632 437.984 142.048C438.432 142.464 439.136 142.672 440.096 142.672C440.96 142.672 441.616 142.608 442.064 142.48V147.76C441.136 148.144 439.936 148.336 438.464 148.336C436.16 148.336 434.336 147.696 432.992 146.416C431.648 145.104 430.976 143.312 430.976 141.04V130.048H426.704V124.384H427.904C429.088 124.384 429.984 124.048 430.592 123.376C431.232 122.672 431.552 121.76 431.552 120.64V117.328H437.312Z" fill="#001F4D"/>
<path d="M403.705 141.568C403.705 139.552 404.361 137.936 405.673 136.72C406.985 135.504 408.681 134.736 410.761 134.416L416.569 133.552C417.753 133.392 418.345 132.832 418.345 131.872C418.345 130.976 417.993 130.24 417.289 129.664C416.617 129.088 415.641 128.8 414.361 128.8C413.017 128.8 411.945 129.168 411.145 129.904C410.377 130.64 409.945 131.552 409.849 132.64L404.185 131.44C404.409 129.392 405.417 127.584 407.209 126.016C409.001 124.448 411.369 123.664 414.313 123.664C417.833 123.664 420.425 124.512 422.089 126.208C423.753 127.872 424.585 130.016 424.585 132.64V144.256C424.585 145.664 424.681 146.912 424.873 148H419.017C418.857 147.296 418.777 146.352 418.777 145.168C417.273 147.504 414.953 148.672 411.817 148.672C409.385 148.672 407.417 147.968 405.913 146.56C404.441 145.152 403.705 143.488 403.705 141.568ZM413.161 143.92C414.665 143.92 415.897 143.504 416.857 142.672C417.849 141.808 418.345 140.4 418.345 138.448V137.392L413.017 138.208C411.065 138.496 410.089 139.488 410.089 141.184C410.089 141.952 410.361 142.608 410.905 143.152C411.449 143.664 412.201 143.92 413.161 143.92Z" fill="#001F4D"/>
<path d="M376.499 149.296L382.259 147.76C382.483 149.072 383.091 150.144 384.083 150.976C385.075 151.808 386.307 152.224 387.779 152.224C391.971 152.224 394.067 150.032 394.067 145.648V143.92C393.523 144.784 392.691 145.504 391.571 146.08C390.451 146.656 389.091 146.944 387.491 146.944C384.355 146.944 381.731 145.856 379.619 143.68C377.539 141.504 376.499 138.768 376.499 135.472C376.499 132.272 377.539 129.552 379.619 127.312C381.699 125.072 384.323 123.952 387.491 123.952C389.219 123.952 390.659 124.272 391.811 124.912C392.963 125.52 393.763 126.272 394.211 127.168V124.384H400.355V145.456C400.355 149.008 399.331 151.952 397.283 154.288C395.235 156.656 392.131 157.84 387.971 157.84C384.867 157.84 382.259 157.008 380.147 155.344C378.067 153.68 376.851 151.664 376.499 149.296ZM388.595 141.472C390.227 141.472 391.555 140.928 392.579 139.84C393.635 138.752 394.163 137.296 394.163 135.472C394.163 133.68 393.619 132.24 392.531 131.152C391.475 130.064 390.163 129.52 388.595 129.52C386.963 129.52 385.603 130.064 384.515 131.152C383.459 132.24 382.931 133.68 382.931 135.472C382.931 137.296 383.459 138.752 384.515 139.84C385.571 140.928 386.931 141.472 388.595 141.472Z" fill="#001F4D"/>
<path d="M372.784 148H366.4V124.384H372.784V148ZM365.632 116.656C365.632 115.568 366.016 114.64 366.784 113.872C367.552 113.072 368.48 112.672 369.568 112.672C370.656 112.672 371.584 113.056 372.352 113.824C373.12 114.592 373.504 115.536 373.504 116.656C373.504 117.712 373.12 118.624 372.352 119.392C371.584 120.16 370.656 120.544 369.568 120.544C368.48 120.544 367.552 120.16 366.784 119.392C366.016 118.624 365.632 117.712 365.632 116.656Z" fill="#001F4D"/>
<path d="M363.956 124.384L354.788 148H348.404L338.756 124.384H345.764L351.62 140.224L357.236 124.384H363.956Z" fill="#001F4D"/>
<path d="M316.231 141.568C316.231 139.552 316.887 137.936 318.199 136.72C319.511 135.504 321.207 134.736 323.287 134.416L329.095 133.552C330.279 133.392 330.871 132.832 330.871 131.872C330.871 130.976 330.519 130.24 329.815 129.664C329.143 129.088 328.167 128.8 326.887 128.8C325.543 128.8 324.471 129.168 323.671 129.904C322.903 130.64 322.471 131.552 322.375 132.64L316.711 131.44C316.935 129.392 317.943 127.584 319.735 126.016C321.527 124.448 323.895 123.664 326.839 123.664C330.359 123.664 332.951 124.512 334.615 126.208C336.279 127.872 337.111 130.016 337.111 132.64V144.256C337.111 145.664 337.207 146.912 337.399 148H331.543C331.383 147.296 331.303 146.352 331.303 145.168C329.799 147.504 327.479 148.672 324.343 148.672C321.911 148.672 319.943 147.968 318.439 146.56C316.967 145.152 316.231 143.488 316.231 141.568ZM325.687 143.92C327.191 143.92 328.423 143.504 329.383 142.672C330.375 141.808 330.871 140.4 330.871 138.448V137.392L325.543 138.208C323.591 138.496 322.615 139.488 322.615 141.184C322.615 141.952 322.887 142.608 323.431 143.152C323.975 143.664 324.727 143.92 325.687 143.92Z" fill="#001F4D"/>
<path d="M311.928 148H304.968L289.512 123.856V148H282.888V113.968H291.144L305.304 136.48V113.968H311.928V148Z" fill="#001F4D"/>
<path d="M338.247 80.08H350.871C350.807 78.352 350.231 76.944 349.143 75.856C348.055 74.736 346.519 74.176 344.535 74.176C342.743 74.176 341.271 74.768 340.119 75.952C338.967 77.104 338.343 78.48 338.247 80.08ZM351.543 86.08L355.431 87.424C354.759 89.568 353.511 91.328 351.687 92.704C349.863 94.048 347.655 94.72 345.063 94.72C341.831 94.72 339.079 93.616 336.807 91.408C334.567 89.168 333.447 86.16 333.447 82.384C333.447 78.864 334.535 75.952 336.711 73.648C338.887 71.344 341.479 70.192 344.487 70.192C347.975 70.192 350.695 71.296 352.647 73.504C354.599 75.68 355.575 78.608 355.575 82.288C355.575 82.864 355.543 83.344 355.479 83.728H338.103C338.135 85.776 338.807 87.456 340.119 88.768C341.463 90.08 343.111 90.736 345.063 90.736C348.359 90.736 350.519 89.184 351.543 86.08Z" fill="#001F4D" fill-opacity="0.4"/>
<path d="M314.318 80.416V94H309.806V59.248H314.318V73.6C315.854 71.36 318.19 70.24 321.326 70.24C323.982 70.24 326.014 71.088 327.422 72.784C328.862 74.48 329.582 76.672 329.582 79.36V94H325.07V80.128C325.07 76.256 323.278 74.32 319.694 74.32C318.03 74.32 316.734 74.896 315.806 76.048C314.878 77.168 314.382 78.624 314.318 80.416Z" fill="#001F4D" fill-opacity="0.4"/>
<path d="M306.936 64.336H295.56V94H290.856V64.336H279.48V59.968H306.936V64.336Z" fill="#001F4D" fill-opacity="0.4"/>
</g>
<defs>
<clipPath id="clip0_202_131">
<rect width="546" height="262" fill="white"/>
</clipPath>
</defs>
</svg>
