<?xml version="1.0" encoding="UTF-8"?>
<svg xmlns="http://www.w3.org/2000/svg" xmlns:xlink="http://www.w3.org/1999/xlink" width="24px" height="24px" viewBox="0 0 24 24" version="1.1">
<g id="surface1">
<path style=" stroke:none;fill-rule:nonzero;fill:rgb(100%,100%,100%);fill-opacity:1;" d="M 22.886719 7.199219 C 22.863281 7.148438 22.84375 7.097656 22.824219 7.046875 C 22.492188 6.292969 22.042969 5.636719 21.484375 5.078125 C 20.925781 4.519531 20.269531 4.078125 19.515625 3.757812 C 18.761719 3.441406 17.960938 3.277344 17.117188 3.277344 C 16.246094 3.277344 15.441406 3.441406 14.703125 3.757812 C 14.011719 4.054688 13.402344 4.457031 12.863281 4.957031 L 12.863281 4.75 C 12.863281 4.019531 12.269531 3.425781 11.539062 3.425781 L 2.242188 3.425781 C 1.507812 3.425781 0.914062 4.019531 0.914062 4.75 C 0.914062 5.484375 1.507812 6.078125 2.242188 6.078125 L 9.546875 6.078125 L 0.976562 17.617188 C 0.804688 17.847656 0.714844 18.125 0.714844 18.410156 L 0.714844 19.273438 C 0.714844 20.007812 1.308594 20.601562 2.039062 20.601562 L 11.9375 20.601562 C 12.636719 20.601562 13.207031 20.058594 13.257812 19.371094 C 13.695312 19.722656 14.183594 20.011719 14.71875 20.242188 C 15.476562 20.5625 16.269531 20.71875 17.121094 20.71875 C 18.398438 20.71875 19.539062 20.378906 20.546875 19.691406 C 21.355469 19.140625 22 18.453125 22.464844 17.628906 C 22.855469 16.9375 23.132812 16.390625 23.039062 15.875 C 22.957031 15.421875 22.714844 14.960938 21.945312 14.757812 C 21.671875 14.757812 21.300781 14.839844 21.085938 14.988281 C 20.867188 15.136719 20.710938 15.339844 20.621094 15.589844 L 20.410156 16.027344 C 20.113281 16.667969 19.671875 17.175781 19.089844 17.550781 C 18.507812 17.929688 17.851562 18.117188 17.121094 18.117188 C 16.636719 18.117188 16.175781 18.027344 15.730469 17.84375 C 15.289062 17.660156 14.902344 17.402344 14.582031 17.070312 C 14.261719 16.742188 14.007812 16.359375 13.8125 15.921875 C 13.621094 15.488281 13.523438 15.035156 13.523438 14.550781 L 13.523438 13.386719 L 21.851562 13.386719 C 21.851562 13.386719 22.566406 13.316406 22.878906 13.027344 C 23.328125 12.609375 23.285156 12.015625 23.285156 12.015625 C 23.285156 12.015625 23.261719 9.632812 23.125 8.453125 C 23.074219 8.027344 22.886719 7.199219 22.886719 7.199219 Z M 4.035156 17.949219 L 10.972656 8.605469 C 10.9375 8.878906 10.917969 9.160156 10.917969 9.445312 L 10.917969 14.550781 C 10.917969 15.398438 11.082031 16.195312 11.414062 16.953125 C 11.570312 17.304688 11.753906 17.636719 11.957031 17.949219 C 11.949219 17.949219 11.945312 17.949219 11.9375 17.949219 Z M 20.714844 10.78125 L 13.519531 10.78125 L 13.519531 9.445312 C 13.519531 8.96875 13.609375 8.511719 13.792969 8.078125 C 13.976562 7.644531 14.234375 7.257812 14.566406 6.929688 C 14.894531 6.597656 15.28125 6.339844 15.714844 6.15625 C 16.148438 5.972656 16.617188 5.882812 17.121094 5.882812 C 17.597656 5.882812 18.0625 5.972656 18.507812 6.15625 C 18.953125 6.339844 19.335938 6.597656 19.652344 6.929688 C 19.972656 7.257812 20.230469 7.644531 20.425781 8.078125 C 20.621094 8.511719 20.714844 8.96875 20.714844 9.445312 Z M 20.714844 10.78125 "/>
</g>
</svg>
